<mxfile host="app.diagrams.net" modified="2023-12-13T09:28:04.935Z" agent="Mozilla/5.0 (Windows NT 10.0; Win64; x64) AppleWebKit/537.36 (KHTML, like Gecko) Chrome/120.0.0.0 Safari/537.36" etag="OR4oaRnCGpuOVosuzxxS" version="22.1.8" type="github">
  <diagram name="Page-1" id="gCgn1vg1BWPBOe7XGkKv">
    <mxGraphModel dx="1562" dy="982" grid="1" gridSize="10" guides="1" tooltips="1" connect="1" arrows="1" fold="1" page="1" pageScale="1" pageWidth="1920" pageHeight="1200" math="0" shadow="0">
      <root>
        <mxCell id="0" />
        <mxCell id="1" parent="0" />
        <mxCell id="YWmpMVMw9Mvio8QM_5Ls-25" value="" style="group;fontSize=24;" vertex="1" connectable="0" parent="1">
          <mxGeometry x="620" y="340" width="570" height="430" as="geometry" />
        </mxCell>
        <mxCell id="YWmpMVMw9Mvio8QM_5Ls-1" value="&lt;font style=&quot;font-size: 24px;&quot;&gt;A10 FPGA&lt;br style=&quot;font-size: 24px;&quot;&gt;Dev Kit&lt;/font&gt;" style="rounded=0;whiteSpace=wrap;html=1;fillColor=#383b3e;fontColor=#ffffff;strokeColor=#314354;fontSize=24;" vertex="1" parent="YWmpMVMw9Mvio8QM_5Ls-25">
          <mxGeometry x="386.7857142857143" y="87.5925925925926" width="183.21428571428572" height="175.1851851851852" as="geometry" />
        </mxCell>
        <mxCell id="YWmpMVMw9Mvio8QM_5Ls-2" value="CPU&lt;br style=&quot;font-size: 24px;&quot;&gt;Motherboard" style="rounded=0;whiteSpace=wrap;html=1;fillColor=#6d8764;strokeColor=#3A5431;fontColor=#ffffff;fontSize=24;" vertex="1" parent="YWmpMVMw9Mvio8QM_5Ls-25">
          <mxGeometry width="366.42857142857144" height="350.3703703703704" as="geometry" />
        </mxCell>
        <mxCell id="YWmpMVMw9Mvio8QM_5Ls-18" value="" style="group;fontSize=24;" vertex="1" connectable="0" parent="YWmpMVMw9Mvio8QM_5Ls-25">
          <mxGeometry x="346.0714285714285" y="127.4074074074074" width="40.71428571428571" height="95.55555555555556" as="geometry" />
        </mxCell>
        <mxCell id="YWmpMVMw9Mvio8QM_5Ls-3" value="" style="rounded=0;whiteSpace=wrap;html=1;fillColor=#cdeb8b;strokeColor=#36393d;fontSize=24;" vertex="1" parent="YWmpMVMw9Mvio8QM_5Ls-18">
          <mxGeometry width="40.71428571428571" height="95.55555555555556" as="geometry" />
        </mxCell>
        <mxCell id="YWmpMVMw9Mvio8QM_5Ls-4" value="" style="line;strokeWidth=2;html=1;fontSize=24;" vertex="1" parent="YWmpMVMw9Mvio8QM_5Ls-18">
          <mxGeometry width="40.71428571428571" height="15.925925925925924" as="geometry" />
        </mxCell>
        <mxCell id="YWmpMVMw9Mvio8QM_5Ls-6" value="" style="line;strokeWidth=2;html=1;fontSize=24;" vertex="1" parent="YWmpMVMw9Mvio8QM_5Ls-18">
          <mxGeometry y="15.925925925925924" width="40.71428571428571" height="15.925925925925924" as="geometry" />
        </mxCell>
        <mxCell id="YWmpMVMw9Mvio8QM_5Ls-7" value="" style="line;strokeWidth=2;html=1;fontSize=24;" vertex="1" parent="YWmpMVMw9Mvio8QM_5Ls-18">
          <mxGeometry y="31.851851851851848" width="40.71428571428571" height="15.925925925925924" as="geometry" />
        </mxCell>
        <mxCell id="YWmpMVMw9Mvio8QM_5Ls-8" value="" style="line;strokeWidth=2;html=1;fontSize=24;" vertex="1" parent="YWmpMVMw9Mvio8QM_5Ls-18">
          <mxGeometry y="47.77777777777778" width="40.71428571428571" height="15.925925925925924" as="geometry" />
        </mxCell>
        <mxCell id="YWmpMVMw9Mvio8QM_5Ls-9" value="" style="line;strokeWidth=2;html=1;fontSize=24;" vertex="1" parent="YWmpMVMw9Mvio8QM_5Ls-18">
          <mxGeometry y="63.703703703703695" width="40.71428571428571" height="15.925925925925924" as="geometry" />
        </mxCell>
        <mxCell id="YWmpMVMw9Mvio8QM_5Ls-10" value="" style="line;strokeWidth=2;html=1;fontSize=24;" vertex="1" parent="YWmpMVMw9Mvio8QM_5Ls-18">
          <mxGeometry y="79.62962962962962" width="40.71428571428571" height="15.925925925925924" as="geometry" />
        </mxCell>
        <mxCell id="YWmpMVMw9Mvio8QM_5Ls-11" value="" style="line;strokeWidth=2;html=1;fontSize=24;" vertex="1" parent="YWmpMVMw9Mvio8QM_5Ls-18">
          <mxGeometry width="40.71428571428571" height="15.925925925925924" as="geometry" />
        </mxCell>
        <mxCell id="YWmpMVMw9Mvio8QM_5Ls-13" value="" style="line;strokeWidth=2;html=1;fontSize=24;" vertex="1" parent="YWmpMVMw9Mvio8QM_5Ls-18">
          <mxGeometry y="39.81481481481481" width="40.71428571428571" height="15.925925925925924" as="geometry" />
        </mxCell>
        <mxCell id="YWmpMVMw9Mvio8QM_5Ls-14" value="" style="line;strokeWidth=2;html=1;fontSize=24;" vertex="1" parent="YWmpMVMw9Mvio8QM_5Ls-18">
          <mxGeometry y="55.74074074074073" width="40.71428571428571" height="15.925925925925924" as="geometry" />
        </mxCell>
        <mxCell id="YWmpMVMw9Mvio8QM_5Ls-15" value="" style="line;strokeWidth=2;html=1;fontSize=24;" vertex="1" parent="YWmpMVMw9Mvio8QM_5Ls-18">
          <mxGeometry y="71.66666666666666" width="40.71428571428571" height="15.925925925925924" as="geometry" />
        </mxCell>
        <mxCell id="YWmpMVMw9Mvio8QM_5Ls-16" value="" style="line;strokeWidth=2;html=1;fontSize=24;" vertex="1" parent="YWmpMVMw9Mvio8QM_5Ls-18">
          <mxGeometry y="23.88888888888889" width="40.71428571428571" height="15.925925925925924" as="geometry" />
        </mxCell>
        <mxCell id="YWmpMVMw9Mvio8QM_5Ls-17" value="" style="line;strokeWidth=2;html=1;fontSize=24;" vertex="1" parent="YWmpMVMw9Mvio8QM_5Ls-18">
          <mxGeometry y="7.962962962962962" width="40.71428571428571" height="15.925925925925924" as="geometry" />
        </mxCell>
        <mxCell id="YWmpMVMw9Mvio8QM_5Ls-20" value="PCIe Interface Link" style="text;html=1;strokeColor=none;fillColor=none;align=center;verticalAlign=middle;whiteSpace=wrap;rounded=0;fontSize=24;" vertex="1" parent="YWmpMVMw9Mvio8QM_5Ls-25">
          <mxGeometry x="310" y="382.22" width="219.29" height="47.78" as="geometry" />
        </mxCell>
        <mxCell id="YWmpMVMw9Mvio8QM_5Ls-23" value="" style="curved=1;endArrow=classic;html=1;rounded=0;edgeStyle=orthogonalEdgeStyle;exitX=0.75;exitY=0.5;exitDx=0;exitDy=0;exitPerimeter=0;entryX=0.5;entryY=0;entryDx=0;entryDy=0;entryPerimeter=0;fontSize=24;" edge="1" parent="YWmpMVMw9Mvio8QM_5Ls-25" source="YWmpMVMw9Mvio8QM_5Ls-15" target="YWmpMVMw9Mvio8QM_5Ls-20">
          <mxGeometry width="50" height="50" relative="1" as="geometry">
            <mxPoint x="386.7857142857143" y="382.22222222222223" as="sourcePoint" />
            <mxPoint x="488.5714285714285" y="302.5925925925926" as="targetPoint" />
          </mxGeometry>
        </mxCell>
      </root>
    </mxGraphModel>
  </diagram>
</mxfile>
